<svg id="my-svg" width="100%" xmlns="http://www.w3.org/2000/svg" xmlns:xlink="http://www.w3.org/1999/xlink" class="classDiagram" style="max-width: 614.141px; background-color: white;" viewBox="0 0 614.140625 788" role="graphics-document document" aria-roledescription="class"><style>#my-svg{font-family:Segoe UI,Arial,sans-serif;font-size:16px;fill:#102A43;}@keyframes edge-animation-frame{from{stroke-dashoffset:0;}}@keyframes dash{to{stroke-dashoffset:0;}}#my-svg .edge-animation-slow{stroke-dasharray:9,5!important;stroke-dashoffset:900;animation:dash 50s linear infinite;stroke-linecap:round;}#my-svg .edge-animation-fast{stroke-dasharray:9,5!important;stroke-dashoffset:900;animation:dash 20s linear infinite;stroke-linecap:round;}#my-svg .error-icon{fill:#FFF7D6;}#my-svg .error-text{fill:#000829;stroke:#000829;}#my-svg .edge-thickness-normal{stroke-width:1px;}#my-svg .edge-thickness-thick{stroke-width:3.5px;}#my-svg .edge-pattern-solid{stroke-dasharray:0;}#my-svg .edge-thickness-invisible{stroke-width:0;fill:none;}#my-svg .edge-pattern-dashed{stroke-dasharray:3;}#my-svg .edge-pattern-dotted{stroke-dasharray:2;}#my-svg .marker{fill:#486581;stroke:#486581;}#my-svg .marker.cross{stroke:#486581;}#my-svg svg{font-family:Segoe UI,Arial,sans-serif;font-size:16px;}#my-svg p{margin:0;}#my-svg g.classGroup text{fill:#1F5E99;stroke:none;font-family:Segoe UI,Arial,sans-serif;font-size:10px;}#my-svg g.classGroup text .title{font-weight:bolder;}#my-svg .cluster-label text{fill:#000829;}#my-svg .cluster-label span{color:#000829;}#my-svg .cluster-label span p{background-color:transparent;}#my-svg .cluster rect{fill:#F8FAFC;stroke:#9FB3C8;stroke-width:1px;}#my-svg .cluster text{fill:#000829;}#my-svg .cluster span{color:#000829;}#my-svg .nodeLabel,#my-svg .edgeLabel{color:#102A43;}#my-svg .edgeLabel .label rect{fill:#E8F1FB;}#my-svg .label text{fill:#102A43;}#my-svg .labelBkg{background:#E8F1FB;}#my-svg .edgeLabel .label span{background:#E8F1FB;}#my-svg .classTitle{font-weight:bolder;}#my-svg .node rect,#my-svg .node circle,#my-svg .node ellipse,#my-svg .node polygon,#my-svg .node path{fill:#E8F1FB;stroke:#1F5E99;stroke-width:1px;}#my-svg .divider{stroke:#1F5E99;stroke-width:1;}#my-svg g.clickable{cursor:pointer;}#my-svg g.classGroup rect{fill:#E8F1FB;stroke:#1F5E99;}#my-svg g.classGroup line{stroke:#1F5E99;stroke-width:1;}#my-svg .classLabel .box{stroke:none;stroke-width:0;fill:#E8F1FB;opacity:0.5;}#my-svg .classLabel .label{fill:#1F5E99;font-size:10px;}#my-svg .relation{stroke:#486581;stroke-width:1;fill:none;}#my-svg .dashed-line{stroke-dasharray:3;}#my-svg .dotted-line{stroke-dasharray:1 2;}#my-svg #compositionStart,#my-svg .composition{fill:#486581!important;stroke:#486581!important;stroke-width:1;}#my-svg #compositionEnd,#my-svg .composition{fill:#486581!important;stroke:#486581!important;stroke-width:1;}#my-svg #dependencyStart,#my-svg .dependency{fill:#486581!important;stroke:#486581!important;stroke-width:1;}#my-svg #dependencyStart,#my-svg .dependency{fill:#486581!important;stroke:#486581!important;stroke-width:1;}#my-svg #extensionStart,#my-svg .extension{fill:transparent!important;stroke:#486581!important;stroke-width:1;}#my-svg #extensionEnd,#my-svg .extension{fill:transparent!important;stroke:#486581!important;stroke-width:1;}#my-svg #aggregationStart,#my-svg .aggregation{fill:transparent!important;stroke:#486581!important;stroke-width:1;}#my-svg #aggregationEnd,#my-svg .aggregation{fill:transparent!important;stroke:#486581!important;stroke-width:1;}#my-svg #lollipopStart,#my-svg .lollipop{fill:#E8F1FB!important;stroke:#486581!important;stroke-width:1;}#my-svg #lollipopEnd,#my-svg .lollipop{fill:#E8F1FB!important;stroke:#486581!important;stroke-width:1;}#my-svg .edgeTerminals{font-size:11px;line-height:initial;}#my-svg .classTitleText{text-anchor:middle;font-size:18px;fill:#102A43;}#my-svg .label-icon{display:inline-block;height:1em;overflow:visible;vertical-align:-0.125em;}#my-svg .node .label-icon path{fill:currentColor;stroke:revert;stroke-width:revert;}#my-svg :root{--mermaid-font-family:"trebuchet ms",verdana,arial,sans-serif;}</style><g><defs><marker id="my-svg_class-aggregationStart" class="marker aggregation class" refX="18" refY="7" markerWidth="190" markerHeight="240" orient="auto"><path d="M 18,7 L9,13 L1,7 L9,1 Z"/></marker></defs><defs><marker id="my-svg_class-aggregationEnd" class="marker aggregation class" refX="1" refY="7" markerWidth="20" markerHeight="28" orient="auto"><path d="M 18,7 L9,13 L1,7 L9,1 Z"/></marker></defs><defs><marker id="my-svg_class-extensionStart" class="marker extension class" refX="18" refY="7" markerWidth="190" markerHeight="240" orient="auto"><path d="M 1,7 L18,13 V 1 Z"/></marker></defs><defs><marker id="my-svg_class-extensionEnd" class="marker extension class" refX="1" refY="7" markerWidth="20" markerHeight="28" orient="auto"><path d="M 1,1 V 13 L18,7 Z"/></marker></defs><defs><marker id="my-svg_class-compositionStart" class="marker composition class" refX="18" refY="7" markerWidth="190" markerHeight="240" orient="auto"><path d="M 18,7 L9,13 L1,7 L9,1 Z"/></marker></defs><defs><marker id="my-svg_class-compositionEnd" class="marker composition class" refX="1" refY="7" markerWidth="20" markerHeight="28" orient="auto"><path d="M 18,7 L9,13 L1,7 L9,1 Z"/></marker></defs><defs><marker id="my-svg_class-dependencyStart" class="marker dependency class" refX="6" refY="7" markerWidth="190" markerHeight="240" orient="auto"><path d="M 5,7 L9,13 L1,7 L9,1 Z"/></marker></defs><defs><marker id="my-svg_class-dependencyEnd" class="marker dependency class" refX="13" refY="7" markerWidth="20" markerHeight="28" orient="auto"><path d="M 18,7 L9,13 L14,7 L9,1 Z"/></marker></defs><defs><marker id="my-svg_class-lollipopStart" class="marker lollipop class" refX="13" refY="7" markerWidth="190" markerHeight="240" orient="auto"><circle fill="transparent" cx="7" cy="7" r="6"/></marker></defs><defs><marker id="my-svg_class-lollipopEnd" class="marker lollipop class" refX="1" refY="7" markerWidth="190" markerHeight="240" orient="auto"><circle fill="transparent" cx="7" cy="7" r="6"/></marker></defs><g class="root"><g class="clusters"/><g class="edgePaths"><path d="M147.359,248L147.359,254.167C147.359,260.333,147.359,272.667,147.359,290C147.359,307.333,147.359,329.667,147.359,340.833L147.359,352" id="id_EtudiantImporte_GroupeEtudiants_1" class="edge-thickness-normal edge-pattern-dashed relation" style=";;;" data-edge="true" data-et="edge" data-id="id_EtudiantImporte_GroupeEtudiants_1" data-points="W3sieCI6MTQ3LjM1OTM3NSwieSI6MjQ4fSx7IngiOjE0Ny4zNTkzNzUsInkiOjI4NX0seyJ4IjoxNDcuMzU5Mzc1LCJ5IjozNTh9XQ==" marker-end="url(#my-svg_class-dependencyEnd)"/><path d="M147.359,502L147.359,514.167C147.359,526.333,147.359,550.667,154.816,568.402C162.273,586.137,177.186,597.273,184.643,602.842L192.1,608.41" id="id_GroupeEtudiants_AffectationGroupes_2" class="edge-thickness-normal edge-pattern-solid relation" style=";;;" data-edge="true" data-et="edge" data-id="id_GroupeEtudiants_AffectationGroupes_2" data-points="W3sieCI6MTQ3LjM1OTM3NSwieSI6NTAyfSx7IngiOjE0Ny4zNTkzNzUsInkiOjU3NX0seyJ4IjoxOTYuOTA3MzE1MzQwOTA5MSwieSI6NjEyfV0=" marker-end="url(#my-svg_class-dependencyEnd)"/><path d="M471.43,538L471.43,544.167C471.43,550.333,471.43,562.667,463.973,574.402C456.516,586.137,441.603,597.273,434.146,602.842L426.689,608.41" id="id_AffectationCours_AffectationGroupes_3" class="edge-thickness-normal edge-pattern-solid relation" style=";;;" data-edge="true" data-et="edge" data-id="id_AffectationCours_AffectationGroupes_3" data-points="W3sieCI6NDcxLjQyOTY4NzUsInkiOjUzOH0seyJ4Ijo0NzEuNDI5Njg3NSwieSI6NTc1fSx7IngiOjQyMS44ODE3NDcxNTkwOTA5LCJ5Ijo2MTJ9XQ==" marker-end="url(#my-svg_class-dependencyEnd)"/></g><g class="edgeLabels"><g class="edgeLabel" transform="translate(147.359375, 285)"><g class="label" data-id="id_EtudiantImporte_GroupeEtudiants_1" transform="translate(-43.7890625, -12)"><foreignObject width="87.578125" height="24"><div xmlns="http://www.w3.org/1999/xhtml" class="labelBkg" style="display: table-cell; white-space: nowrap; line-height: 1.5; max-width: 200px; text-align: center;"><span class="edgeLabel"><p>appartient_a</p></span></div></foreignObject></g></g><g class="edgeLabel" transform="translate(147.359375, 575)"><g class="label" data-id="id_GroupeEtudiants_AffectationGroupes_2" transform="translate(-15.0234375, -12)"><foreignObject width="30.046875" height="24"><div xmlns="http://www.w3.org/1999/xhtml" class="labelBkg" style="display: table-cell; white-space: nowrap; line-height: 1.5; max-width: 200px; text-align: center;"><span class="edgeLabel"><p>relie</p></span></div></foreignObject></g></g><g class="edgeLabel" transform="translate(471.4296875, 575)"><g class="label" data-id="id_AffectationCours_AffectationGroupes_3" transform="translate(-28.984375, -12)"><foreignObject width="57.96875" height="24"><div xmlns="http://www.w3.org/1999/xhtml" class="labelBkg" style="display: table-cell; white-space: nowrap; line-height: 1.5; max-width: 200px; text-align: center;"><span class="edgeLabel"><p>contient</p></span></div></foreignObject></g></g><g class="edgeTerminals" transform="translate(132.35937750000014, 519.5000021428572)"><g class="inner" transform="translate(-2.96875, -8.25)"><foreignObject width="5.9375" height="16.5" style="width: 9px; height: 12px;"><div xmlns="http://www.w3.org/1999/xhtml" style="display: table-cell; white-space: nowrap; line-height: 1.5;"><span class="edgeLabel"><p>1</p></span></div></foreignObject></g></g><g class="edgeTerminals" transform="translate(456.42968875, 555.5000010714285)"><g class="inner" transform="translate(-2.96875, -8.25)"><foreignObject width="5.9375" height="16.5" style="width: 9px; height: 12px;"><div xmlns="http://www.w3.org/1999/xhtml" style="display: table-cell; white-space: nowrap; line-height: 1.5;"><span class="edgeLabel"><p>1</p></span></div></foreignObject></g></g><g class="edgeTerminals" transform="translate(186.86047600208002, 584.510460647072)"><g class="inner" transform="translate(-7.6484375, -8.25)"/><foreignObject width="15.296875" height="16.5" style="width: 36px; height: 12px;"><div xmlns="http://www.w3.org/1999/xhtml" style="display: table-cell; white-space: nowrap; line-height: 1.5;"><span class="edgeLabel"><p>0..*</p></span></div></foreignObject></g><g class="edgeTerminals" transform="translate(439.8785724248275, 608.5478889693542)"><g class="inner" transform="translate(-7.6484375, -8.25)"/><foreignObject width="15.296875" height="16.5" style="width: 36px; height: 12px;"><div xmlns="http://www.w3.org/1999/xhtml" style="display: table-cell; white-space: nowrap; line-height: 1.5;"><span class="edgeLabel"><p>0..*</p></span></div></foreignObject></g></g><g class="nodes"><g class="node default" id="classId-EtudiantImporte-0" transform="translate(147.359375, 128)"><g class="basic label-container"><path d="M-116.46875 -120 L116.46875 -120 L116.46875 120 L-116.46875 120" stroke="none" stroke-width="0" fill="#E8F1FB" style=""/><path d="M-116.46875 -120 C-66.7694799474693 -120, -17.070209894938614 -120, 116.46875 -120 M-116.46875 -120 C-38.593754725523056 -120, 39.28124054895389 -120, 116.46875 -120 M116.46875 -120 C116.46875 -70.25943961530662, 116.46875 -20.518879230613237, 116.46875 120 M116.46875 -120 C116.46875 -40.077098511558575, 116.46875 39.84580297688285, 116.46875 120 M116.46875 120 C66.36615421548393 120, 16.263558430967848 120, -116.46875 120 M116.46875 120 C31.823231949252488 120, -52.822286101495024 120, -116.46875 120 M-116.46875 120 C-116.46875 61.12996298929845, -116.46875 2.259925978596897, -116.46875 -120 M-116.46875 120 C-116.46875 35.59275115649089, -116.46875 -48.81449768701822, -116.46875 -120" stroke="#1F5E99" stroke-width="1.3" fill="none" stroke-dasharray="0 0" style=""/></g><g class="annotation-group text" transform="translate(0, -96)"/><g class="label-group text" transform="translate(-62.234375, -96)"><g class="label" style="font-weight: bolder" transform="translate(0,-12)"><foreignObject width="124.46875" height="24"><div xmlns="http://www.w3.org/1999/xhtml" style="display: table-cell; white-space: nowrap; line-height: 1.5; max-width: 156px; text-align: center;"><span class="nodeLabel markdown-node-label" style=""><p>EtudiantImporte</p></span></div></foreignObject></g></g><g class="members-group text" transform="translate(-104.46875, -48)"><g class="label" style="" transform="translate(0,-12)"><foreignObject width="128.78125" height="24"><div xmlns="http://www.w3.org/1999/xhtml" style="display: table-cell; white-space: nowrap; line-height: 1.5; max-width: 174px; text-align: center;"><span class="nodeLabel markdown-node-label" style=""><p>+matricule : string</p></span></div></foreignObject></g><g class="label" style="" transform="translate(0,12)"><foreignObject width="95.515625" height="24"><div xmlns="http://www.w3.org/1999/xhtml" style="display: table-cell; white-space: nowrap; line-height: 1.5; max-width: 142px; text-align: center;"><span class="nodeLabel markdown-node-label" style=""><p>+nom : string</p></span></div></foreignObject></g><g class="label" style="" transform="translate(0,36)"><foreignObject width="118.859375" height="24"><div xmlns="http://www.w3.org/1999/xhtml" style="display: table-cell; white-space: nowrap; line-height: 1.5; max-width: 162px; text-align: center;"><span class="nodeLabel markdown-node-label" style=""><p>+prenom : string</p></span></div></foreignObject></g><g class="label" style="" transform="translate(0,60)"><foreignObject width="114.5" height="24"><div xmlns="http://www.w3.org/1999/xhtml" style="display: table-cell; white-space: nowrap; line-height: 1.5; max-width: 158px; text-align: center;"><span class="nodeLabel markdown-node-label" style=""><p>+groupe : string</p></span></div></foreignObject></g><g class="label" style="" transform="translate(0,84)"><foreignObject width="146.703125" height="24"><div xmlns="http://www.w3.org/1999/xhtml" style="display: table-cell; white-space: nowrap; line-height: 1.5; max-width: 187px; text-align: center;"><span class="nodeLabel markdown-node-label" style=""><p>+programme : string</p></span></div></foreignObject></g><g class="label" style="" transform="translate(0,108)"><foreignObject width="81.234375" height="24"><div xmlns="http://www.w3.org/1999/xhtml" style="display: table-cell; white-space: nowrap; line-height: 1.5; max-width: 128px; text-align: center;"><span class="nodeLabel markdown-node-label" style=""><p>+etape : int</p></span></div></foreignObject></g></g><g class="methods-group text" transform="translate(-104.46875, 120)"/><g class="divider" style=""><path d="M-116.46875 -72 C-62.81610054047371 -72, -9.163451080947425 -72, 116.46875 -72 M-116.46875 -72 C-66.08767518961008 -72, -15.706600379220149 -72, 116.46875 -72" stroke="#1F5E99" stroke-width="1.3" fill="none" stroke-dasharray="0 0" style=""/></g><g class="divider" style=""><path d="M-116.46875 96 C-23.773595654322293 96, 68.92155869135541 96, 116.46875 96 M-116.46875 96 C-35.11188006106501 96, 46.24498987786998 96, 116.46875 96" stroke="#1F5E99" stroke-width="1.3" fill="none" stroke-dasharray="0 0" style=""/></g></g><g class="node default" id="classId-GroupeEtudiants-1" transform="translate(147.359375, 430)"><g class="basic label-container"><path d="M-139.359375 -72 L139.359375 -72 L139.359375 72 L-139.359375 72" stroke="none" stroke-width="0" fill="#E8F1FB" style=""/><path d="M-139.359375 -72 C-50.01597988619942 -72, 39.327415227601165 -72, 139.359375 -72 M-139.359375 -72 C-72.16540237685403 -72, -4.971429753708065 -72, 139.359375 -72 M139.359375 -72 C139.359375 -24.068226200178195, 139.359375 23.86354759964361, 139.359375 72 M139.359375 -72 C139.359375 -19.90209723241665, 139.359375 32.1958055351667, 139.359375 72 M139.359375 72 C39.83792003558864 72, -59.68353492882272 72, -139.359375 72 M139.359375 72 C71.83759105572491 72, 4.315807111449828 72, -139.359375 72 M-139.359375 72 C-139.359375 29.28592270455774, -139.359375 -13.428154590884517, -139.359375 -72 M-139.359375 72 C-139.359375 42.90470655443392, -139.359375 13.809413108867844, -139.359375 -72" stroke="#1F5E99" stroke-width="1.3" fill="none" stroke-dasharray="0 0" style=""/></g><g class="annotation-group text" transform="translate(0, -48)"/><g class="label-group text" transform="translate(-63.078125, -48)"><g class="label" style="font-weight: bolder" transform="translate(0,-12)"><foreignObject width="126.15625" height="24"><div xmlns="http://www.w3.org/1999/xhtml" style="display: table-cell; white-space: nowrap; line-height: 1.5; max-width: 158px; text-align: center;"><span class="nodeLabel markdown-node-label" style=""><p>GroupeEtudiants</p></span></div></foreignObject></g></g><g class="members-group text" transform="translate(-127.359375, 0)"><g class="label" style="" transform="translate(0,-12)"><foreignObject width="191.640625" height="24"><div xmlns="http://www.w3.org/1999/xhtml" style="display: table-cell; white-space: nowrap; line-height: 1.5; max-width: 231px; text-align: center;"><span class="nodeLabel markdown-node-label" style=""><p>+id_groupes_etudiants : int</p></span></div></foreignObject></g><g class="label" style="" transform="translate(0,12)"><foreignObject width="153.34375" height="24"><div xmlns="http://www.w3.org/1999/xhtml" style="display: table-cell; white-space: nowrap; line-height: 1.5; max-width: 194px; text-align: center;"><span class="nodeLabel markdown-node-label" style=""><p>+nom_groupe : string</p></span></div></foreignObject></g></g><g class="methods-group text" transform="translate(-127.359375, 72)"/><g class="divider" style=""><path d="M-139.359375 -24 C-69.08720991070662 -24, 1.1849551785867618 -24, 139.359375 -24 M-139.359375 -24 C-51.413681676223874 -24, 36.53201164755225 -24, 139.359375 -24" stroke="#1F5E99" stroke-width="1.3" fill="none" stroke-dasharray="0 0" style=""/></g><g class="divider" style=""><path d="M-139.359375 48 C-38.37244229147956 48, 62.614490417040884 48, 139.359375 48 M-139.359375 48 C-42.71827239372797 48, 53.922830212544056 48, 139.359375 48" stroke="#1F5E99" stroke-width="1.3" fill="none" stroke-dasharray="0 0" style=""/></g></g><g class="node default" id="classId-AffectationGroupes-2" transform="translate(309.39453125, 696)"><g class="basic label-container"><path d="M-149.5703125 -84 L149.5703125 -84 L149.5703125 84 L-149.5703125 84" stroke="none" stroke-width="0" fill="#E8F1FB" style=""/><path d="M-149.5703125 -84 C-62.55421242255447 -84, 24.461887654891058 -84, 149.5703125 -84 M-149.5703125 -84 C-49.01121597002786 -84, 51.547880559944275 -84, 149.5703125 -84 M149.5703125 -84 C149.5703125 -29.70104988776778, 149.5703125 24.59790022446444, 149.5703125 84 M149.5703125 -84 C149.5703125 -42.15298281776069, 149.5703125 -0.3059656355213747, 149.5703125 84 M149.5703125 84 C86.1945973385003 84, 22.81888217700059 84, -149.5703125 84 M149.5703125 84 C43.54600778852854 84, -62.47829692294292 84, -149.5703125 84 M-149.5703125 84 C-149.5703125 44.9453973112019, -149.5703125 5.890794622403803, -149.5703125 -84 M-149.5703125 84 C-149.5703125 20.569254251136982, -149.5703125 -42.861491497726036, -149.5703125 -84" stroke="#1F5E99" stroke-width="1.3" fill="none" stroke-dasharray="0 0" style=""/></g><g class="annotation-group text" transform="translate(0, -60)"/><g class="label-group text" transform="translate(-73.84375, -60)"><g class="label" style="font-weight: bolder" transform="translate(0,-12)"><foreignObject width="147.6875" height="24"><div xmlns="http://www.w3.org/1999/xhtml" style="display: table-cell; white-space: nowrap; line-height: 1.5; max-width: 178px; text-align: center;"><span class="nodeLabel markdown-node-label" style=""><p>AffectationGroupes</p></span></div></foreignObject></g></g><g class="members-group text" transform="translate(-137.5703125, -12)"><g class="label" style="" transform="translate(0,-12)"><foreignObject width="201.296875" height="24"><div xmlns="http://www.w3.org/1999/xhtml" style="display: table-cell; white-space: nowrap; line-height: 1.5; max-width: 242px; text-align: center;"><span class="nodeLabel markdown-node-label" style=""><p>+id_affectation_groupes : int</p></span></div></foreignObject></g><g class="label" style="" transform="translate(0,12)"><foreignObject width="191.640625" height="24"><div xmlns="http://www.w3.org/1999/xhtml" style="display: table-cell; white-space: nowrap; line-height: 1.5; max-width: 231px; text-align: center;"><span class="nodeLabel markdown-node-label" style=""><p>+id_groupes_etudiants : int</p></span></div></foreignObject></g><g class="label" style="" transform="translate(0,36)"><foreignObject width="181.484375" height="24"><div xmlns="http://www.w3.org/1999/xhtml" style="display: table-cell; white-space: nowrap; line-height: 1.5; max-width: 226px; text-align: center;"><span class="nodeLabel markdown-node-label" style=""><p>+id_affectation_cours : int</p></span></div></foreignObject></g></g><g class="methods-group text" transform="translate(-137.5703125, 84)"/><g class="divider" style=""><path d="M-149.5703125 -36 C-36.974764430129824 -36, 75.62078363974035 -36, 149.5703125 -36 M-149.5703125 -36 C-65.59198012104181 -36, 18.38635225791637 -36, 149.5703125 -36" stroke="#1F5E99" stroke-width="1.3" fill="none" stroke-dasharray="0 0" style=""/></g><g class="divider" style=""><path d="M-149.5703125 60 C-79.6913494310864 60, -9.812386362172788 60, 149.5703125 60 M-149.5703125 60 C-68.57367429021818 60, 12.422963919563642 60, 149.5703125 60" stroke="#1F5E99" stroke-width="1.3" fill="none" stroke-dasharray="0 0" style=""/></g></g><g class="node default" id="classId-AffectationCours-3" transform="translate(471.4296875, 430)"><g class="basic label-container"><path d="M-134.7109375 -108 L134.7109375 -108 L134.7109375 108 L-134.7109375 108" stroke="none" stroke-width="0" fill="#E8F1FB" style=""/><path d="M-134.7109375 -108 C-57.920185400528084 -108, 18.870566698943833 -108, 134.7109375 -108 M-134.7109375 -108 C-67.67225547977412 -108, -0.633573459548245 -108, 134.7109375 -108 M134.7109375 -108 C134.7109375 -25.38941619514138, 134.7109375 57.22116760971724, 134.7109375 108 M134.7109375 -108 C134.7109375 -34.09182043405298, 134.7109375 39.816359131894046, 134.7109375 108 M134.7109375 108 C69.38207448820536 108, 4.053211476410723 108, -134.7109375 108 M134.7109375 108 C78.0525566551512 108, 21.394175810302386 108, -134.7109375 108 M-134.7109375 108 C-134.7109375 25.8508543022713, -134.7109375 -56.2982913954574, -134.7109375 -108 M-134.7109375 108 C-134.7109375 60.729755360508356, -134.7109375 13.459510721016713, -134.7109375 -108" stroke="#1F5E99" stroke-width="1.3" fill="none" stroke-dasharray="0 0" style=""/></g><g class="annotation-group text" transform="translate(0, -84)"/><g class="label-group text" transform="translate(-63.9375, -84)"><g class="label" style="font-weight: bolder" transform="translate(0,-12)"><foreignObject width="127.875" height="24"><div xmlns="http://www.w3.org/1999/xhtml" style="display: table-cell; white-space: nowrap; line-height: 1.5; max-width: 162px; text-align: center;"><span class="nodeLabel markdown-node-label" style=""><p>AffectationCours</p></span></div></foreignObject></g></g><g class="members-group text" transform="translate(-122.7109375, -36)"><g class="label" style="" transform="translate(0,-12)"><foreignObject width="181.484375" height="24"><div xmlns="http://www.w3.org/1999/xhtml" style="display: table-cell; white-space: nowrap; line-height: 1.5; max-width: 226px; text-align: center;"><span class="nodeLabel markdown-node-label" style=""><p>+id_affectation_cours : int</p></span></div></foreignObject></g><g class="label" style="" transform="translate(0,12)"><foreignObject width="99.640625" height="24"><div xmlns="http://www.w3.org/1999/xhtml" style="display: table-cell; white-space: nowrap; line-height: 1.5; max-width: 149px; text-align: center;"><span class="nodeLabel markdown-node-label" style=""><p>+id_cours : int</p></span></div></foreignObject></g><g class="label" style="" transform="translate(0,36)"><foreignObject width="135.75" height="24"><div xmlns="http://www.w3.org/1999/xhtml" style="display: table-cell; white-space: nowrap; line-height: 1.5; max-width: 181px; text-align: center;"><span class="nodeLabel markdown-node-label" style=""><p>+id_professeur : int</p></span></div></foreignObject></g><g class="label" style="" transform="translate(0,60)"><foreignObject width="92.515625" height="24"><div xmlns="http://www.w3.org/1999/xhtml" style="display: table-cell; white-space: nowrap; line-height: 1.5; max-width: 144px; text-align: center;"><span class="nodeLabel markdown-node-label" style=""><p>+id_salle : int</p></span></div></foreignObject></g><g class="label" style="" transform="translate(0,84)"><foreignObject width="164.046875" height="24"><div xmlns="http://www.w3.org/1999/xhtml" style="display: table-cell; white-space: nowrap; line-height: 1.5; max-width: 209px; text-align: center;"><span class="nodeLabel markdown-node-label" style=""><p>+id_plage_horaires : int</p></span></div></foreignObject></g></g><g class="methods-group text" transform="translate(-122.7109375, 108)"/><g class="divider" style=""><path d="M-134.7109375 -60 C-62.839140612995664 -60, 9.032656274008673 -60, 134.7109375 -60 M-134.7109375 -60 C-48.98537258456591 -60, 36.74019233086818 -60, 134.7109375 -60" stroke="#1F5E99" stroke-width="1.3" fill="none" stroke-dasharray="0 0" style=""/></g><g class="divider" style=""><path d="M-134.7109375 84 C-57.4220199441274 84, 19.866897611745202 84, 134.7109375 84 M-134.7109375 84 C-61.37258826076025 84, 11.965760978479494 84, 134.7109375 84" stroke="#1F5E99" stroke-width="1.3" fill="none" stroke-dasharray="0 0" style=""/></g></g></g></g></g></svg>