<svg id="my-svg" width="100%" xmlns="http://www.w3.org/2000/svg" xmlns:xlink="http://www.w3.org/1999/xlink" class="classDiagram" style="max-width: 526.316px; background-color: white;" viewBox="0 0 526.31640625 416" role="graphics-document document" aria-roledescription="class"><style>#my-svg{font-family:Segoe UI,Arial,sans-serif;font-size:16px;fill:#102A43;}@keyframes edge-animation-frame{from{stroke-dashoffset:0;}}@keyframes dash{to{stroke-dashoffset:0;}}#my-svg .edge-animation-slow{stroke-dasharray:9,5!important;stroke-dashoffset:900;animation:dash 50s linear infinite;stroke-linecap:round;}#my-svg .edge-animation-fast{stroke-dasharray:9,5!important;stroke-dashoffset:900;animation:dash 20s linear infinite;stroke-linecap:round;}#my-svg .error-icon{fill:#FFF7D6;}#my-svg .error-text{fill:#000829;stroke:#000829;}#my-svg .edge-thickness-normal{stroke-width:1px;}#my-svg .edge-thickness-thick{stroke-width:3.5px;}#my-svg .edge-pattern-solid{stroke-dasharray:0;}#my-svg .edge-thickness-invisible{stroke-width:0;fill:none;}#my-svg .edge-pattern-dashed{stroke-dasharray:3;}#my-svg .edge-pattern-dotted{stroke-dasharray:2;}#my-svg .marker{fill:#486581;stroke:#486581;}#my-svg .marker.cross{stroke:#486581;}#my-svg svg{font-family:Segoe UI,Arial,sans-serif;font-size:16px;}#my-svg p{margin:0;}#my-svg g.classGroup text{fill:#1F5E99;stroke:none;font-family:Segoe UI,Arial,sans-serif;font-size:10px;}#my-svg g.classGroup text .title{font-weight:bolder;}#my-svg .cluster-label text{fill:#000829;}#my-svg .cluster-label span{color:#000829;}#my-svg .cluster-label span p{background-color:transparent;}#my-svg .cluster rect{fill:#F8FAFC;stroke:#9FB3C8;stroke-width:1px;}#my-svg .cluster text{fill:#000829;}#my-svg .cluster span{color:#000829;}#my-svg .nodeLabel,#my-svg .edgeLabel{color:#102A43;}#my-svg .edgeLabel .label rect{fill:#E8F1FB;}#my-svg .label text{fill:#102A43;}#my-svg .labelBkg{background:#E8F1FB;}#my-svg .edgeLabel .label span{background:#E8F1FB;}#my-svg .classTitle{font-weight:bolder;}#my-svg .node rect,#my-svg .node circle,#my-svg .node ellipse,#my-svg .node polygon,#my-svg .node path{fill:#E8F1FB;stroke:#1F5E99;stroke-width:1px;}#my-svg .divider{stroke:#1F5E99;stroke-width:1;}#my-svg g.clickable{cursor:pointer;}#my-svg g.classGroup rect{fill:#E8F1FB;stroke:#1F5E99;}#my-svg g.classGroup line{stroke:#1F5E99;stroke-width:1;}#my-svg .classLabel .box{stroke:none;stroke-width:0;fill:#E8F1FB;opacity:0.5;}#my-svg .classLabel .label{fill:#1F5E99;font-size:10px;}#my-svg .relation{stroke:#486581;stroke-width:1;fill:none;}#my-svg .dashed-line{stroke-dasharray:3;}#my-svg .dotted-line{stroke-dasharray:1 2;}#my-svg #compositionStart,#my-svg .composition{fill:#486581!important;stroke:#486581!important;stroke-width:1;}#my-svg #compositionEnd,#my-svg .composition{fill:#486581!important;stroke:#486581!important;stroke-width:1;}#my-svg #dependencyStart,#my-svg .dependency{fill:#486581!important;stroke:#486581!important;stroke-width:1;}#my-svg #dependencyStart,#my-svg .dependency{fill:#486581!important;stroke:#486581!important;stroke-width:1;}#my-svg #extensionStart,#my-svg .extension{fill:transparent!important;stroke:#486581!important;stroke-width:1;}#my-svg #extensionEnd,#my-svg .extension{fill:transparent!important;stroke:#486581!important;stroke-width:1;}#my-svg #aggregationStart,#my-svg .aggregation{fill:transparent!important;stroke:#486581!important;stroke-width:1;}#my-svg #aggregationEnd,#my-svg .aggregation{fill:transparent!important;stroke:#486581!important;stroke-width:1;}#my-svg #lollipopStart,#my-svg .lollipop{fill:#E8F1FB!important;stroke:#486581!important;stroke-width:1;}#my-svg #lollipopEnd,#my-svg .lollipop{fill:#E8F1FB!important;stroke:#486581!important;stroke-width:1;}#my-svg .edgeTerminals{font-size:11px;line-height:initial;}#my-svg .classTitleText{text-anchor:middle;font-size:18px;fill:#102A43;}#my-svg .label-icon{display:inline-block;height:1em;overflow:visible;vertical-align:-0.125em;}#my-svg .node .label-icon path{fill:currentColor;stroke:revert;stroke-width:revert;}#my-svg :root{--mermaid-font-family:"trebuchet ms",verdana,arial,sans-serif;}</style><g><defs><marker id="my-svg_class-aggregationStart" class="marker aggregation class" refX="18" refY="7" markerWidth="190" markerHeight="240" orient="auto"><path d="M 18,7 L9,13 L1,7 L9,1 Z"/></marker></defs><defs><marker id="my-svg_class-aggregationEnd" class="marker aggregation class" refX="1" refY="7" markerWidth="20" markerHeight="28" orient="auto"><path d="M 18,7 L9,13 L1,7 L9,1 Z"/></marker></defs><defs><marker id="my-svg_class-extensionStart" class="marker extension class" refX="18" refY="7" markerWidth="190" markerHeight="240" orient="auto"><path d="M 1,7 L18,13 V 1 Z"/></marker></defs><defs><marker id="my-svg_class-extensionEnd" class="marker extension class" refX="1" refY="7" markerWidth="20" markerHeight="28" orient="auto"><path d="M 1,1 V 13 L18,7 Z"/></marker></defs><defs><marker id="my-svg_class-compositionStart" class="marker composition class" refX="18" refY="7" markerWidth="190" markerHeight="240" orient="auto"><path d="M 18,7 L9,13 L1,7 L9,1 Z"/></marker></defs><defs><marker id="my-svg_class-compositionEnd" class="marker composition class" refX="1" refY="7" markerWidth="20" markerHeight="28" orient="auto"><path d="M 18,7 L9,13 L1,7 L9,1 Z"/></marker></defs><defs><marker id="my-svg_class-dependencyStart" class="marker dependency class" refX="6" refY="7" markerWidth="190" markerHeight="240" orient="auto"><path d="M 5,7 L9,13 L1,7 L9,1 Z"/></marker></defs><defs><marker id="my-svg_class-dependencyEnd" class="marker dependency class" refX="13" refY="7" markerWidth="20" markerHeight="28" orient="auto"><path d="M 18,7 L9,13 L14,7 L9,1 Z"/></marker></defs><defs><marker id="my-svg_class-lollipopStart" class="marker lollipop class" refX="13" refY="7" markerWidth="190" markerHeight="240" orient="auto"><circle fill="transparent" cx="7" cy="7" r="6"/></marker></defs><defs><marker id="my-svg_class-lollipopEnd" class="marker lollipop class" refX="1" refY="7" markerWidth="190" markerHeight="240" orient="auto"><circle fill="transparent" cx="7" cy="7" r="6"/></marker></defs><g class="root"><g class="clusters"/><g class="edgePaths"><path d="M41.477,92L41.477,98.167C41.477,104.333,41.477,116.667,61.347,130.653C81.218,144.64,120.96,160.279,140.831,168.099L160.702,175.919" id="id_Cours_AffectationCours_1" class="edge-thickness-normal edge-pattern-solid relation" style=";;;" data-edge="true" data-et="edge" data-id="id_Cours_AffectationCours_1" data-points="W3sieCI6NDEuNDc2NTYyNSwieSI6OTJ9LHsieCI6NDEuNDc2NTYyNSwieSI6MTI5fSx7IngiOjE2Ni4yODUxNTYyNSwieSI6MTc4LjExNjE2ODIwMDY1Nzd9XQ==" marker-end="url(#my-svg_class-dependencyEnd)"/><path d="M176.578,92L176.578,98.167C176.578,104.333,176.578,116.667,181.063,128.231C185.548,139.795,194.518,150.59,199.003,155.988L203.488,161.385" id="id_Professeur_AffectationCours_2" class="edge-thickness-normal edge-pattern-solid relation" style=";;;" data-edge="true" data-et="edge" data-id="id_Professeur_AffectationCours_2" data-points="W3sieCI6MTc2LjU3ODEyNSwieSI6OTJ9LHsieCI6MTc2LjU3ODEyNSwieSI6MTI5fSx7IngiOjIwNy4zMjMwMzIwNDExMzkyNCwieSI6MTY2fV0=" marker-end="url(#my-svg_class-dependencyEnd)"/><path d="M307.867,92L307.867,98.167C307.867,104.333,307.867,116.667,303.382,128.231C298.897,139.795,289.927,150.59,285.442,155.988L280.957,161.385" id="id_Salle_AffectationCours_3" class="edge-thickness-normal edge-pattern-solid relation" style=";;;" data-edge="true" data-et="edge" data-id="id_Salle_AffectationCours_3" data-points="W3sieCI6MzA3Ljg2NzE4NzUsInkiOjkyfSx7IngiOjMwNy44NjcxODc1LCJ5IjoxMjl9LHsieCI6Mjc3LjEyMjI4MDQ1ODg2MDc2LCJ5IjoxNjZ9XQ==" marker-end="url(#my-svg_class-dependencyEnd)"/><path d="M448.57,92L448.57,98.167C448.57,104.333,448.57,116.667,427.769,130.797C406.968,144.927,365.366,160.855,344.565,168.818L323.764,176.782" id="id_PlageHoraire_AffectationCours_4" class="edge-thickness-normal edge-pattern-solid relation" style=";;;" data-edge="true" data-et="edge" data-id="id_PlageHoraire_AffectationCours_4" data-points="W3sieCI6NDQ4LjU3MDMxMjUsInkiOjkyfSx7IngiOjQ0OC41NzAzMTI1LCJ5IjoxMjl9LHsieCI6MzE4LjE2MDE1NjI1LCJ5IjoxNzguOTI3NDAxNzk4MzkwOTJ9XQ==" marker-end="url(#my-svg_class-dependencyEnd)"/><path d="M242.223,250L242.223,256.167C242.223,262.333,242.223,274.667,249.282,286.382C256.341,298.097,270.46,309.195,277.519,314.744L284.579,320.292" id="id_AffectationCours_AffectationGroupes_5" class="edge-thickness-normal edge-pattern-solid relation" style=";;;" data-edge="true" data-et="edge" data-id="id_AffectationCours_AffectationGroupes_5" data-points="W3sieCI6MjQyLjIyMjY1NjI1LCJ5IjoyNTB9LHsieCI6MjQyLjIyMjY1NjI1LCJ5IjoyODd9LHsieCI6Mjg5LjI5NTkzNTUyMjE1MTksInkiOjMyNH1d" marker-end="url(#my-svg_class-dependencyEnd)"/><path d="M443.238,250L443.238,256.167C443.238,262.333,443.238,274.667,436.179,286.382C429.12,298.097,415.001,309.195,407.942,314.744L400.882,320.292" id="id_GroupeEtudiants_AffectationGroupes_6" class="edge-thickness-normal edge-pattern-solid relation" style=";;;" data-edge="true" data-et="edge" data-id="id_GroupeEtudiants_AffectationGroupes_6" data-points="W3sieCI6NDQzLjIzODI4MTI1LCJ5IjoyNTB9LHsieCI6NDQzLjIzODI4MTI1LCJ5IjoyODd9LHsieCI6Mzk2LjE2NTAwMTk3Nzg0ODEsInkiOjMyNH1d" marker-end="url(#my-svg_class-dependencyEnd)"/></g><g class="edgeLabels"><g class="edgeLabel" transform="translate(41.4765625, 129)"><g class="label" data-id="id_Cours_AffectationCours_1" transform="translate(-25.8046875, -12)"><foreignObject width="51.609375" height="24"><div xmlns="http://www.w3.org/1999/xhtml" class="labelBkg" style="display: table-cell; white-space: nowrap; line-height: 1.5; max-width: 200px; text-align: center;"><span class="edgeLabel"><p>planifie</p></span></div></foreignObject></g></g><g class="edgeLabel" transform="translate(176.578125, 129)"><g class="label" data-id="id_Professeur_AffectationCours_2" transform="translate(-31.6484375, -12)"><foreignObject width="63.296875" height="24"><div xmlns="http://www.w3.org/1999/xhtml" class="labelBkg" style="display: table-cell; white-space: nowrap; line-height: 1.5; max-width: 200px; text-align: center;"><span class="edgeLabel"><p>enseigne</p></span></div></foreignObject></g></g><g class="edgeLabel" transform="translate(307.8671875, 129)"><g class="label" data-id="id_Salle_AffectationCours_3" transform="translate(-25.34375, -12)"><foreignObject width="50.6875" height="24"><div xmlns="http://www.w3.org/1999/xhtml" class="labelBkg" style="display: table-cell; white-space: nowrap; line-height: 1.5; max-width: 200px; text-align: center;"><span class="edgeLabel"><p>reserve</p></span></div></foreignObject></g></g><g class="edgeLabel" transform="translate(448.5703125, 129)"><g class="label" data-id="id_PlageHoraire_AffectationCours_4" transform="translate(-37.296875, -12)"><foreignObject width="74.59375" height="24"><div xmlns="http://www.w3.org/1999/xhtml" class="labelBkg" style="display: table-cell; white-space: nowrap; line-height: 1.5; max-width: 200px; text-align: center;"><span class="edgeLabel"><p>positionne</p></span></div></foreignObject></g></g><g class="edgeLabel" transform="translate(242.22265625, 287)"><g class="label" data-id="id_AffectationCours_AffectationGroupes_5" transform="translate(-33.0234375, -12)"><foreignObject width="66.046875" height="24"><div xmlns="http://www.w3.org/1999/xhtml" class="labelBkg" style="display: table-cell; white-space: nowrap; line-height: 1.5; max-width: 200px; text-align: center;"><span class="edgeLabel"><p>reference</p></span></div></foreignObject></g></g><g class="edgeLabel" transform="translate(443.23828125, 287)"><g class="label" data-id="id_GroupeEtudiants_AffectationGroupes_6" transform="translate(-30.7265625, -12)"><foreignObject width="61.453125" height="24"><div xmlns="http://www.w3.org/1999/xhtml" class="labelBkg" style="display: table-cell; white-space: nowrap; line-height: 1.5; max-width: 200px; text-align: center;"><span class="edgeLabel"><p>participe</p></span></div></foreignObject></g></g><g class="edgeTerminals" transform="translate(26.476561250000042, 109.49999892857143)"><g class="inner" transform="translate(-2.96875, -8.25)"><foreignObject width="5.9375" height="16.5" style="width: 9px; height: 12px;"><div xmlns="http://www.w3.org/1999/xhtml" style="display: table-cell; white-space: nowrap; line-height: 1.5;"><span class="edgeLabel"><p>1</p></span></div></foreignObject></g></g><g class="edgeTerminals" transform="translate(161.57812750000014, 109.50000214285714)"><g class="inner" transform="translate(-2.96875, -8.25)"><foreignObject width="5.9375" height="16.5" style="width: 9px; height: 12px;"><div xmlns="http://www.w3.org/1999/xhtml" style="display: table-cell; white-space: nowrap; line-height: 1.5;"><span class="edgeLabel"><p>1</p></span></div></foreignObject></g></g><g class="edgeTerminals" transform="translate(292.86718875, 109.50000107142857)"><g class="inner" transform="translate(-2.96875, -8.25)"><foreignObject width="5.9375" height="16.5" style="width: 9px; height: 12px;"><div xmlns="http://www.w3.org/1999/xhtml" style="display: table-cell; white-space: nowrap; line-height: 1.5;"><span class="edgeLabel"><p>1</p></span></div></foreignObject></g></g><g class="edgeTerminals" transform="translate(433.5703112500001, 109.49999892857143)"><g class="inner" transform="translate(-2.96875, -8.25)"><foreignObject width="5.9375" height="16.5" style="width: 9px; height: 12px;"><div xmlns="http://www.w3.org/1999/xhtml" style="display: table-cell; white-space: nowrap; line-height: 1.5;"><span class="edgeLabel"><p>1</p></span></div></foreignObject></g></g><g class="edgeTerminals" transform="translate(227.2226581250001, 267.50000160714285)"><g class="inner" transform="translate(-2.96875, -8.25)"><foreignObject width="5.9375" height="16.5" style="width: 9px; height: 12px;"><div xmlns="http://www.w3.org/1999/xhtml" style="display: table-cell; white-space: nowrap; line-height: 1.5;"><span class="edgeLabel"><p>1</p></span></div></foreignObject></g></g><g class="edgeTerminals" transform="translate(428.238280625, 267.4999994642857)"><g class="inner" transform="translate(-2.96875, -8.25)"><foreignObject width="5.9375" height="16.5" style="width: 9px; height: 12px;"><div xmlns="http://www.w3.org/1999/xhtml" style="display: table-cell; white-space: nowrap; line-height: 1.5;"><span class="edgeLabel"><p>1</p></span></div></foreignObject></g></g><g class="edgeTerminals" transform="translate(150.49369185839012, 152.74966943713824)"><g class="inner" transform="translate(-7.6484375, -8.25)"/><foreignObject width="15.296875" height="16.5" style="width: 36px; height: 12px;"><div xmlns="http://www.w3.org/1999/xhtml" style="display: table-cell; white-space: nowrap; line-height: 1.5;"><span class="edgeLabel"><p>0..*</p></span></div></foreignObject></g><g class="edgeTerminals" transform="translate(202.67566941826007, 137.9538364124497)"><g class="inner" transform="translate(-7.6484375, -8.25)"/><foreignObject width="15.296875" height="16.5" style="width: 36px; height: 12px;"><div xmlns="http://www.w3.org/1999/xhtml" style="display: table-cell; white-space: nowrap; line-height: 1.5;"><span class="edgeLabel"><p>0..*</p></span></div></foreignObject></g><g class="edgeTerminals" transform="translate(294.84337915377796, 157.12680295374392)"><g class="inner" transform="translate(-7.6484375, -8.25)"/><foreignObject width="15.296875" height="16.5" style="width: 36px; height: 12px;"><div xmlns="http://www.w3.org/1999/xhtml" style="display: table-cell; white-space: nowrap; line-height: 1.5;"><span class="edgeLabel"><p>0..*</p></span></div></foreignObject></g><g class="edgeTerminals" transform="translate(334.8664841065484, 181.6788783341181)"><g class="inner" transform="translate(-7.6484375, -8.25)"/><foreignObject width="15.296875" height="16.5" style="width: 36px; height: 12px;"><div xmlns="http://www.w3.org/1999/xhtml" style="display: table-cell; white-space: nowrap; line-height: 1.5;"><span class="edgeLabel"><p>0..*</p></span></div></foreignObject></g><g class="edgeTerminals" transform="translate(279.8068018664035, 296.3925312398244)"><g class="inner" transform="translate(-7.6484375, -8.25)"/><foreignObject width="15.296875" height="16.5" style="width: 36px; height: 12px;"><div xmlns="http://www.w3.org/1999/xhtml" style="display: table-cell; white-space: nowrap; line-height: 1.5;"><span class="edgeLabel"><p>0..*</p></span></div></foreignObject></g><g class="edgeTerminals" transform="translate(414.1930745737007, 319.97870916933294)"><g class="inner" transform="translate(-7.6484375, -8.25)"/><foreignObject width="15.296875" height="16.5" style="width: 36px; height: 12px;"><div xmlns="http://www.w3.org/1999/xhtml" style="display: table-cell; white-space: nowrap; line-height: 1.5;"><span class="edgeLabel"><p>0..*</p></span></div></foreignObject></g></g><g class="nodes"><g class="node default" id="classId-Cours-0" transform="translate(41.4765625, 50)"><g class="basic label-container"><path d="M-33.4765625 -42 L33.4765625 -42 L33.4765625 42 L-33.4765625 42" stroke="none" stroke-width="0" fill="#E8F1FB" style=""/><path d="M-33.4765625 -42 C-10.671606136159795 -42, 12.13335022768041 -42, 33.4765625 -42 M-33.4765625 -42 C-14.95303530359352 -42, 3.57049189281296 -42, 33.4765625 -42 M33.4765625 -42 C33.4765625 -10.20370713238011, 33.4765625 21.59258573523978, 33.4765625 42 M33.4765625 -42 C33.4765625 -15.527068749495282, 33.4765625 10.945862501009437, 33.4765625 42 M33.4765625 42 C12.489957376044373 42, -8.496647747911254 42, -33.4765625 42 M33.4765625 42 C15.160895917071496 42, -3.154770665857008 42, -33.4765625 42 M-33.4765625 42 C-33.4765625 9.251932088397247, -33.4765625 -23.496135823205506, -33.4765625 -42 M-33.4765625 42 C-33.4765625 16.42261826453424, -33.4765625 -9.15476347093152, -33.4765625 -42" stroke="#1F5E99" stroke-width="1.3" fill="none" stroke-dasharray="0 0" style=""/></g><g class="annotation-group text" transform="translate(0, -18)"/><g class="label-group text" transform="translate(-21.4765625, -18)"><g class="label" style="font-weight: bolder" transform="translate(0,-12)"><foreignObject width="42.953125" height="24"><div xmlns="http://www.w3.org/1999/xhtml" style="display: table-cell; white-space: nowrap; line-height: 1.5; max-width: 88px; text-align: center;"><span class="nodeLabel markdown-node-label" style=""><p>Cours</p></span></div></foreignObject></g></g><g class="members-group text" transform="translate(-21.4765625, 30)"/><g class="methods-group text" transform="translate(-21.4765625, 60)"/><g class="divider" style=""><path d="M-33.4765625 6 C-10.606534076153718 6, 12.263494347692564 6, 33.4765625 6 M-33.4765625 6 C-6.788557848984599 6, 19.899446802030802 6, 33.4765625 6" stroke="#1F5E99" stroke-width="1.3" fill="none" stroke-dasharray="0 0" style=""/></g><g class="divider" style=""><path d="M-33.4765625 24 C-8.319880805432145 24, 16.83680088913571 24, 33.4765625 24 M-33.4765625 24 C-13.1022645866359 24, 7.272033326728199 24, 33.4765625 24" stroke="#1F5E99" stroke-width="1.3" fill="none" stroke-dasharray="0 0" style=""/></g></g><g class="node default" id="classId-Professeur-1" transform="translate(176.578125, 50)"><g class="basic label-container"><path d="M-51.625 -42 L51.625 -42 L51.625 42 L-51.625 42" stroke="none" stroke-width="0" fill="#E8F1FB" style=""/><path d="M-51.625 -42 C-29.619344497624507 -42, -7.613688995249014 -42, 51.625 -42 M-51.625 -42 C-13.624104464593422 -42, 24.376791070813155 -42, 51.625 -42 M51.625 -42 C51.625 -9.404606700889552, 51.625 23.190786598220896, 51.625 42 M51.625 -42 C51.625 -13.593025215575537, 51.625 14.813949568848926, 51.625 42 M51.625 42 C20.193944620209454 42, -11.237110759581093 42, -51.625 42 M51.625 42 C24.816829964843755 42, -1.9913400703124893 42, -51.625 42 M-51.625 42 C-51.625 19.63960984365107, -51.625 -2.720780312697862, -51.625 -42 M-51.625 42 C-51.625 16.33922953600182, -51.625 -9.32154092799636, -51.625 -42" stroke="#1F5E99" stroke-width="1.3" fill="none" stroke-dasharray="0 0" style=""/></g><g class="annotation-group text" transform="translate(0, -18)"/><g class="label-group text" transform="translate(-39.625, -18)"><g class="label" style="font-weight: bolder" transform="translate(0,-12)"><foreignObject width="79.25" height="24"><div xmlns="http://www.w3.org/1999/xhtml" style="display: table-cell; white-space: nowrap; line-height: 1.5; max-width: 119px; text-align: center;"><span class="nodeLabel markdown-node-label" style=""><p>Professeur</p></span></div></foreignObject></g></g><g class="members-group text" transform="translate(-39.625, 30)"/><g class="methods-group text" transform="translate(-39.625, 60)"/><g class="divider" style=""><path d="M-51.625 6 C-25.678966984722116 6, 0.2670660305557675 6, 51.625 6 M-51.625 6 C-19.50398624957173 6, 12.617027500856537 6, 51.625 6" stroke="#1F5E99" stroke-width="1.3" fill="none" stroke-dasharray="0 0" style=""/></g><g class="divider" style=""><path d="M-51.625 24 C-14.591558580372975 24, 22.44188283925405 24, 51.625 24 M-51.625 24 C-18.412241656109742 24, 14.800516687780515 24, 51.625 24" stroke="#1F5E99" stroke-width="1.3" fill="none" stroke-dasharray="0 0" style=""/></g></g><g class="node default" id="classId-Salle-2" transform="translate(307.8671875, 50)"><g class="basic label-container"><path d="M-29.6640625 -42 L29.6640625 -42 L29.6640625 42 L-29.6640625 42" stroke="none" stroke-width="0" fill="#E8F1FB" style=""/><path d="M-29.6640625 -42 C-16.99724478907502 -42, -4.330427078150038 -42, 29.6640625 -42 M-29.6640625 -42 C-12.900543801102536 -42, 3.8629748977949276 -42, 29.6640625 -42 M29.6640625 -42 C29.6640625 -17.433662894930738, 29.6640625 7.132674210138525, 29.6640625 42 M29.6640625 -42 C29.6640625 -20.833103865836435, 29.6640625 0.33379226832713016, 29.6640625 42 M29.6640625 42 C6.269785712596878 42, -17.124491074806244 42, -29.6640625 42 M29.6640625 42 C14.086463567510354 42, -1.4911353649792929 42, -29.6640625 42 M-29.6640625 42 C-29.6640625 24.497526790791184, -29.6640625 6.9950535815823685, -29.6640625 -42 M-29.6640625 42 C-29.6640625 13.578312625686127, -29.6640625 -14.843374748627745, -29.6640625 -42" stroke="#1F5E99" stroke-width="1.3" fill="none" stroke-dasharray="0 0" style=""/></g><g class="annotation-group text" transform="translate(0, -18)"/><g class="label-group text" transform="translate(-17.6640625, -18)"><g class="label" style="font-weight: bolder" transform="translate(0,-12)"><foreignObject width="35.328125" height="24"><div xmlns="http://www.w3.org/1999/xhtml" style="display: table-cell; white-space: nowrap; line-height: 1.5; max-width: 82px; text-align: center;"><span class="nodeLabel markdown-node-label" style=""><p>Salle</p></span></div></foreignObject></g></g><g class="members-group text" transform="translate(-17.6640625, 30)"/><g class="methods-group text" transform="translate(-17.6640625, 60)"/><g class="divider" style=""><path d="M-29.6640625 6 C-12.776540021673053 6, 4.110982456653893 6, 29.6640625 6 M-29.6640625 6 C-14.31604444543686 6, 1.031973609126279 6, 29.6640625 6" stroke="#1F5E99" stroke-width="1.3" fill="none" stroke-dasharray="0 0" style=""/></g><g class="divider" style=""><path d="M-29.6640625 24 C-14.57410842465505 24, 0.5158456506899007 24, 29.6640625 24 M-29.6640625 24 C-5.977519681093824 24, 17.709023137812352 24, 29.6640625 24" stroke="#1F5E99" stroke-width="1.3" fill="none" stroke-dasharray="0 0" style=""/></g></g><g class="node default" id="classId-PlageHoraire-3" transform="translate(448.5703125, 50)"><g class="basic label-container"><path d="M-61.0390625 -42 L61.0390625 -42 L61.0390625 42 L-61.0390625 42" stroke="none" stroke-width="0" fill="#E8F1FB" style=""/><path d="M-61.0390625 -42 C-29.375687347499728 -42, 2.2876878050005445 -42, 61.0390625 -42 M-61.0390625 -42 C-29.929983278718986 -42, 1.1790959425620287 -42, 61.0390625 -42 M61.0390625 -42 C61.0390625 -17.52128521154703, 61.0390625 6.9574295769059376, 61.0390625 42 M61.0390625 -42 C61.0390625 -12.486061653237279, 61.0390625 17.027876693525442, 61.0390625 42 M61.0390625 42 C15.822501183316547 42, -29.394060133366906 42, -61.0390625 42 M61.0390625 42 C12.694306290431093 42, -35.65044991913781 42, -61.0390625 42 M-61.0390625 42 C-61.0390625 18.316945170654503, -61.0390625 -5.366109658690995, -61.0390625 -42 M-61.0390625 42 C-61.0390625 19.82011747456824, -61.0390625 -2.3597650508635226, -61.0390625 -42" stroke="#1F5E99" stroke-width="1.3" fill="none" stroke-dasharray="0 0" style=""/></g><g class="annotation-group text" transform="translate(0, -18)"/><g class="label-group text" transform="translate(-49.0390625, -18)"><g class="label" style="font-weight: bolder" transform="translate(0,-12)"><foreignObject width="98.078125" height="24"><div xmlns="http://www.w3.org/1999/xhtml" style="display: table-cell; white-space: nowrap; line-height: 1.5; max-width: 135px; text-align: center;"><span class="nodeLabel markdown-node-label" style=""><p>PlageHoraire</p></span></div></foreignObject></g></g><g class="members-group text" transform="translate(-49.0390625, 30)"/><g class="methods-group text" transform="translate(-49.0390625, 60)"/><g class="divider" style=""><path d="M-61.0390625 6 C-21.401504076394737 6, 18.236054347210526 6, 61.0390625 6 M-61.0390625 6 C-18.149958547818464 6, 24.73914540436307 6, 61.0390625 6" stroke="#1F5E99" stroke-width="1.3" fill="none" stroke-dasharray="0 0" style=""/></g><g class="divider" style=""><path d="M-61.0390625 24 C-26.050511514994376 24, 8.938039470011248 24, 61.0390625 24 M-61.0390625 24 C-36.31900465794491 24, -11.598946815889818 24, 61.0390625 24" stroke="#1F5E99" stroke-width="1.3" fill="none" stroke-dasharray="0 0" style=""/></g></g><g class="node default" id="classId-GroupeEtudiants-4" transform="translate(443.23828125, 208)"><g class="basic label-container"><path d="M-75.078125 -42 L75.078125 -42 L75.078125 42 L-75.078125 42" stroke="none" stroke-width="0" fill="#E8F1FB" style=""/><path d="M-75.078125 -42 C-16.292344921474168 -42, 42.493435157051664 -42, 75.078125 -42 M-75.078125 -42 C-34.56985421139151 -42, 5.938416577216984 -42, 75.078125 -42 M75.078125 -42 C75.078125 -11.000166072687641, 75.078125 19.999667854624718, 75.078125 42 M75.078125 -42 C75.078125 -9.040897144064822, 75.078125 23.918205711870357, 75.078125 42 M75.078125 42 C39.97311918317448 42, 4.868113366348965 42, -75.078125 42 M75.078125 42 C18.74619417167741 42, -37.58573665664518 42, -75.078125 42 M-75.078125 42 C-75.078125 14.145661442580092, -75.078125 -13.708677114839816, -75.078125 -42 M-75.078125 42 C-75.078125 20.232935675638753, -75.078125 -1.5341286487224934, -75.078125 -42" stroke="#1F5E99" stroke-width="1.3" fill="none" stroke-dasharray="0 0" style=""/></g><g class="annotation-group text" transform="translate(0, -18)"/><g class="label-group text" transform="translate(-63.078125, -18)"><g class="label" style="font-weight: bolder" transform="translate(0,-12)"><foreignObject width="126.15625" height="24"><div xmlns="http://www.w3.org/1999/xhtml" style="display: table-cell; white-space: nowrap; line-height: 1.5; max-width: 158px; text-align: center;"><span class="nodeLabel markdown-node-label" style=""><p>GroupeEtudiants</p></span></div></foreignObject></g></g><g class="members-group text" transform="translate(-63.078125, 30)"/><g class="methods-group text" transform="translate(-63.078125, 60)"/><g class="divider" style=""><path d="M-75.078125 6 C-26.060384574993044 6, 22.95735585001391 6, 75.078125 6 M-75.078125 6 C-36.011797312905465 6, 3.0545303741890706 6, 75.078125 6" stroke="#1F5E99" stroke-width="1.3" fill="none" stroke-dasharray="0 0" style=""/></g><g class="divider" style=""><path d="M-75.078125 24 C-35.28996781619881 24, 4.498189367602379 24, 75.078125 24 M-75.078125 24 C-21.001180309240596 24, 33.07576438151881 24, 75.078125 24" stroke="#1F5E99" stroke-width="1.3" fill="none" stroke-dasharray="0 0" style=""/></g></g><g class="node default" id="classId-AffectationCours-5" transform="translate(242.22265625, 208)"><g class="basic label-container"><path d="M-75.9375 -42 L75.9375 -42 L75.9375 42 L-75.9375 42" stroke="none" stroke-width="0" fill="#E8F1FB" style=""/><path d="M-75.9375 -42 C-34.093106747111385 -42, 7.75128650577723 -42, 75.9375 -42 M-75.9375 -42 C-38.62088091582683 -42, -1.3042618316536618 -42, 75.9375 -42 M75.9375 -42 C75.9375 -16.49450655107615, 75.9375 9.010986897847701, 75.9375 42 M75.9375 -42 C75.9375 -14.632226812120294, 75.9375 12.735546375759412, 75.9375 42 M75.9375 42 C37.13524004147469 42, -1.6670199170506237 42, -75.9375 42 M75.9375 42 C23.456832569776253 42, -29.023834860447494 42, -75.9375 42 M-75.9375 42 C-75.9375 14.374989952663043, -75.9375 -13.250020094673914, -75.9375 -42 M-75.9375 42 C-75.9375 9.276277880638894, -75.9375 -23.447444238722213, -75.9375 -42" stroke="#1F5E99" stroke-width="1.3" fill="none" stroke-dasharray="0 0" style=""/></g><g class="annotation-group text" transform="translate(0, -18)"/><g class="label-group text" transform="translate(-63.9375, -18)"><g class="label" style="font-weight: bolder" transform="translate(0,-12)"><foreignObject width="127.875" height="24"><div xmlns="http://www.w3.org/1999/xhtml" style="display: table-cell; white-space: nowrap; line-height: 1.5; max-width: 162px; text-align: center;"><span class="nodeLabel markdown-node-label" style=""><p>AffectationCours</p></span></div></foreignObject></g></g><g class="members-group text" transform="translate(-63.9375, 30)"/><g class="methods-group text" transform="translate(-63.9375, 60)"/><g class="divider" style=""><path d="M-75.9375 6 C-27.409754424897677 6, 21.117991150204645 6, 75.9375 6 M-75.9375 6 C-18.862931135093596 6, 38.21163772981281 6, 75.9375 6" stroke="#1F5E99" stroke-width="1.3" fill="none" stroke-dasharray="0 0" style=""/></g><g class="divider" style=""><path d="M-75.9375 24 C-30.158916180090927 24, 15.619667639818147 24, 75.9375 24 M-75.9375 24 C-24.09200077468249 24, 27.75349845063502 24, 75.9375 24" stroke="#1F5E99" stroke-width="1.3" fill="none" stroke-dasharray="0 0" style=""/></g></g><g class="node default" id="classId-AffectationGroupes-6" transform="translate(342.73046875, 366)"><g class="basic label-container"><path d="M-85.84375 -42 L85.84375 -42 L85.84375 42 L-85.84375 42" stroke="none" stroke-width="0" fill="#E8F1FB" style=""/><path d="M-85.84375 -42 C-19.15789886078379 -42, 47.52795227843242 -42, 85.84375 -42 M-85.84375 -42 C-30.40298805744014 -42, 25.03777388511972 -42, 85.84375 -42 M85.84375 -42 C85.84375 -8.716067376260277, 85.84375 24.567865247479446, 85.84375 42 M85.84375 -42 C85.84375 -15.621369648029962, 85.84375 10.757260703940076, 85.84375 42 M85.84375 42 C25.8926956916384 42, -34.0583586167232 42, -85.84375 42 M85.84375 42 C39.738304387897436 42, -6.3671412242051275 42, -85.84375 42 M-85.84375 42 C-85.84375 18.041512210531966, -85.84375 -5.916975578936068, -85.84375 -42 M-85.84375 42 C-85.84375 23.05571883574788, -85.84375 4.111437671495757, -85.84375 -42" stroke="#1F5E99" stroke-width="1.3" fill="none" stroke-dasharray="0 0" style=""/></g><g class="annotation-group text" transform="translate(0, -18)"/><g class="label-group text" transform="translate(-73.84375, -18)"><g class="label" style="font-weight: bolder" transform="translate(0,-12)"><foreignObject width="147.6875" height="24"><div xmlns="http://www.w3.org/1999/xhtml" style="display: table-cell; white-space: nowrap; line-height: 1.5; max-width: 178px; text-align: center;"><span class="nodeLabel markdown-node-label" style=""><p>AffectationGroupes</p></span></div></foreignObject></g></g><g class="members-group text" transform="translate(-73.84375, 30)"/><g class="methods-group text" transform="translate(-73.84375, 60)"/><g class="divider" style=""><path d="M-85.84375 6 C-43.15395014908465 6, -0.46415029816930087 6, 85.84375 6 M-85.84375 6 C-38.38848373559965 6, 9.066782528800701 6, 85.84375 6" stroke="#1F5E99" stroke-width="1.3" fill="none" stroke-dasharray="0 0" style=""/></g><g class="divider" style=""><path d="M-85.84375 24 C-47.52900121946519 24, -9.214252438930373 24, 85.84375 24 M-85.84375 24 C-33.06390648338474 24, 19.715937033230517 24, 85.84375 24" stroke="#1F5E99" stroke-width="1.3" fill="none" stroke-dasharray="0 0" style=""/></g></g></g></g></g></svg>