<svg id="my-svg" width="100%" xmlns="http://www.w3.org/2000/svg" xmlns:xlink="http://www.w3.org/1999/xlink" class="classDiagram" style="max-width: 285.422px; background-color: white;" viewBox="0 0 285.421875 716" role="graphics-document document" aria-roledescription="class"><style>#my-svg{font-family:Segoe UI,Arial,sans-serif;font-size:16px;fill:#102A43;}@keyframes edge-animation-frame{from{stroke-dashoffset:0;}}@keyframes dash{to{stroke-dashoffset:0;}}#my-svg .edge-animation-slow{stroke-dasharray:9,5!important;stroke-dashoffset:900;animation:dash 50s linear infinite;stroke-linecap:round;}#my-svg .edge-animation-fast{stroke-dasharray:9,5!important;stroke-dashoffset:900;animation:dash 20s linear infinite;stroke-linecap:round;}#my-svg .error-icon{fill:#FFF7D6;}#my-svg .error-text{fill:#000829;stroke:#000829;}#my-svg .edge-thickness-normal{stroke-width:1px;}#my-svg .edge-thickness-thick{stroke-width:3.5px;}#my-svg .edge-pattern-solid{stroke-dasharray:0;}#my-svg .edge-thickness-invisible{stroke-width:0;fill:none;}#my-svg .edge-pattern-dashed{stroke-dasharray:3;}#my-svg .edge-pattern-dotted{stroke-dasharray:2;}#my-svg .marker{fill:#486581;stroke:#486581;}#my-svg .marker.cross{stroke:#486581;}#my-svg svg{font-family:Segoe UI,Arial,sans-serif;font-size:16px;}#my-svg p{margin:0;}#my-svg g.classGroup text{fill:#1F5E99;stroke:none;font-family:Segoe UI,Arial,sans-serif;font-size:10px;}#my-svg g.classGroup text .title{font-weight:bolder;}#my-svg .cluster-label text{fill:#000829;}#my-svg .cluster-label span{color:#000829;}#my-svg .cluster-label span p{background-color:transparent;}#my-svg .cluster rect{fill:#F8FAFC;stroke:#9FB3C8;stroke-width:1px;}#my-svg .cluster text{fill:#000829;}#my-svg .cluster span{color:#000829;}#my-svg .nodeLabel,#my-svg .edgeLabel{color:#102A43;}#my-svg .edgeLabel .label rect{fill:#E8F1FB;}#my-svg .label text{fill:#102A43;}#my-svg .labelBkg{background:#E8F1FB;}#my-svg .edgeLabel .label span{background:#E8F1FB;}#my-svg .classTitle{font-weight:bolder;}#my-svg .node rect,#my-svg .node circle,#my-svg .node ellipse,#my-svg .node polygon,#my-svg .node path{fill:#E8F1FB;stroke:#1F5E99;stroke-width:1px;}#my-svg .divider{stroke:#1F5E99;stroke-width:1;}#my-svg g.clickable{cursor:pointer;}#my-svg g.classGroup rect{fill:#E8F1FB;stroke:#1F5E99;}#my-svg g.classGroup line{stroke:#1F5E99;stroke-width:1;}#my-svg .classLabel .box{stroke:none;stroke-width:0;fill:#E8F1FB;opacity:0.5;}#my-svg .classLabel .label{fill:#1F5E99;font-size:10px;}#my-svg .relation{stroke:#486581;stroke-width:1;fill:none;}#my-svg .dashed-line{stroke-dasharray:3;}#my-svg .dotted-line{stroke-dasharray:1 2;}#my-svg #compositionStart,#my-svg .composition{fill:#486581!important;stroke:#486581!important;stroke-width:1;}#my-svg #compositionEnd,#my-svg .composition{fill:#486581!important;stroke:#486581!important;stroke-width:1;}#my-svg #dependencyStart,#my-svg .dependency{fill:#486581!important;stroke:#486581!important;stroke-width:1;}#my-svg #dependencyStart,#my-svg .dependency{fill:#486581!important;stroke:#486581!important;stroke-width:1;}#my-svg #extensionStart,#my-svg .extension{fill:transparent!important;stroke:#486581!important;stroke-width:1;}#my-svg #extensionEnd,#my-svg .extension{fill:transparent!important;stroke:#486581!important;stroke-width:1;}#my-svg #aggregationStart,#my-svg .aggregation{fill:transparent!important;stroke:#486581!important;stroke-width:1;}#my-svg #aggregationEnd,#my-svg .aggregation{fill:transparent!important;stroke:#486581!important;stroke-width:1;}#my-svg #lollipopStart,#my-svg .lollipop{fill:#E8F1FB!important;stroke:#486581!important;stroke-width:1;}#my-svg #lollipopEnd,#my-svg .lollipop{fill:#E8F1FB!important;stroke:#486581!important;stroke-width:1;}#my-svg .edgeTerminals{font-size:11px;line-height:initial;}#my-svg .classTitleText{text-anchor:middle;font-size:18px;fill:#102A43;}#my-svg .label-icon{display:inline-block;height:1em;overflow:visible;vertical-align:-0.125em;}#my-svg .node .label-icon path{fill:currentColor;stroke:revert;stroke-width:revert;}#my-svg :root{--mermaid-font-family:"trebuchet ms",verdana,arial,sans-serif;}</style><g><defs><marker id="my-svg_class-aggregationStart" class="marker aggregation class" refX="18" refY="7" markerWidth="190" markerHeight="240" orient="auto"><path d="M 18,7 L9,13 L1,7 L9,1 Z"/></marker></defs><defs><marker id="my-svg_class-aggregationEnd" class="marker aggregation class" refX="1" refY="7" markerWidth="20" markerHeight="28" orient="auto"><path d="M 18,7 L9,13 L1,7 L9,1 Z"/></marker></defs><defs><marker id="my-svg_class-extensionStart" class="marker extension class" refX="18" refY="7" markerWidth="190" markerHeight="240" orient="auto"><path d="M 1,7 L18,13 V 1 Z"/></marker></defs><defs><marker id="my-svg_class-extensionEnd" class="marker extension class" refX="1" refY="7" markerWidth="20" markerHeight="28" orient="auto"><path d="M 1,1 V 13 L18,7 Z"/></marker></defs><defs><marker id="my-svg_class-compositionStart" class="marker composition class" refX="18" refY="7" markerWidth="190" markerHeight="240" orient="auto"><path d="M 18,7 L9,13 L1,7 L9,1 Z"/></marker></defs><defs><marker id="my-svg_class-compositionEnd" class="marker composition class" refX="1" refY="7" markerWidth="20" markerHeight="28" orient="auto"><path d="M 18,7 L9,13 L1,7 L9,1 Z"/></marker></defs><defs><marker id="my-svg_class-dependencyStart" class="marker dependency class" refX="6" refY="7" markerWidth="190" markerHeight="240" orient="auto"><path d="M 5,7 L9,13 L1,7 L9,1 Z"/></marker></defs><defs><marker id="my-svg_class-dependencyEnd" class="marker dependency class" refX="13" refY="7" markerWidth="20" markerHeight="28" orient="auto"><path d="M 18,7 L9,13 L14,7 L9,1 Z"/></marker></defs><defs><marker id="my-svg_class-lollipopStart" class="marker lollipop class" refX="13" refY="7" markerWidth="190" markerHeight="240" orient="auto"><circle fill="transparent" cx="7" cy="7" r="6"/></marker></defs><defs><marker id="my-svg_class-lollipopEnd" class="marker lollipop class" refX="1" refY="7" markerWidth="190" markerHeight="240" orient="auto"><circle fill="transparent" cx="7" cy="7" r="6"/></marker></defs><g class="root"><g class="clusters"/><g class="edgePaths"><path d="M142.711,418L142.711,424.167C142.711,430.333,142.711,442.667,142.711,454C142.711,465.333,142.711,475.667,142.711,480.833L142.711,486" id="id_Salle_AffectationCours_1" class="edge-thickness-normal edge-pattern-solid relation" style=";;;" data-edge="true" data-et="edge" data-id="id_Salle_AffectationCours_1" data-points="W3sieCI6MTQyLjcxMDkzNzUsInkiOjQxOH0seyJ4IjoxNDIuNzEwOTM3NSwieSI6NDU1fSx7IngiOjE0Mi43MTA5Mzc1LCJ5Ijo0OTJ9XQ==" marker-end="url(#my-svg_class-dependencyEnd)"/><path d="M142.711,152L142.711,158.167C142.711,164.333,142.711,176.667,142.711,188C142.711,199.333,142.711,209.667,142.711,214.833L142.711,220" id="id_Cours_Salle_2" class="edge-thickness-normal edge-pattern-dashed relation" style=";;;" data-edge="true" data-et="edge" data-id="id_Cours_Salle_2" data-points="W3sieCI6MTQyLjcxMDkzNzUsInkiOjE1Mn0seyJ4IjoxNDIuNzEwOTM3NSwieSI6MTg5fSx7IngiOjE0Mi43MTA5Mzc1LCJ5IjoyMjZ9XQ==" marker-end="url(#my-svg_class-dependencyEnd)"/></g><g class="edgeLabels"><g class="edgeLabel" transform="translate(142.7109375, 455)"><g class="label" data-id="id_Salle_AffectationCours_1" transform="translate(-30.171875, -12)"><foreignObject width="60.34375" height="24"><div xmlns="http://www.w3.org/1999/xhtml" class="labelBkg" style="display: table-cell; white-space: nowrap; line-height: 1.5; max-width: 200px; text-align: center;"><span class="edgeLabel"><p>accueille</p></span></div></foreignObject></g></g><g class="edgeLabel" transform="translate(142.7109375, 189)"><g class="label" data-id="id_Cours_Salle_2" transform="translate(-92.6953125, -12)"><foreignObject width="185.390625" height="24"><div xmlns="http://www.w3.org/1999/xhtml" class="labelBkg" style="display: table-cell; white-space: nowrap; line-height: 1.5; max-width: 200px; text-align: center;"><span class="edgeLabel"><p>exige_un_type_compatible</p></span></div></foreignObject></g></g><g class="edgeTerminals" transform="translate(127.71093875000004, 435.5000010714286)"><g class="inner" transform="translate(-2.96875, -8.25)"><foreignObject width="5.9375" height="16.5" style="width: 9px; height: 12px;"><div xmlns="http://www.w3.org/1999/xhtml" style="display: table-cell; white-space: nowrap; line-height: 1.5;"><span class="edgeLabel"><p>1</p></span></div></foreignObject></g></g><g class="edgeTerminals" transform="translate(127.71093875000004, 169.50000107142858)"><g class="inner" transform="translate(-7.6484375, -8.25)"><foreignObject width="15.296875" height="16.5" style="width: 36px; height: 12px;"><div xmlns="http://www.w3.org/1999/xhtml" style="display: table-cell; white-space: nowrap; line-height: 1.5;"><span class="edgeLabel"><p>0..*</p></span></div></foreignObject></g></g><g class="edgeTerminals" transform="translate(152.71093874999997, 469.5000010714286)"><g class="inner" transform="translate(-7.6484375, -8.25)"/><foreignObject width="15.296875" height="16.5" style="width: 36px; height: 12px;"><div xmlns="http://www.w3.org/1999/xhtml" style="display: table-cell; white-space: nowrap; line-height: 1.5;"><span class="edgeLabel"><p>0..*</p></span></div></foreignObject></g></g><g class="nodes"><g class="node default" id="classId-Salle-0" transform="translate(142.7109375, 322)"><g class="basic label-container"><path d="M-70.66796875 -96 L70.66796875 -96 L70.66796875 96 L-70.66796875 96" stroke="none" stroke-width="0" fill="#E8F1FB" style=""/><path d="M-70.66796875 -96 C-33.0577278422115 -96, 4.552513065577003 -96, 70.66796875 -96 M-70.66796875 -96 C-21.389854390970086 -96, 27.888259968059828 -96, 70.66796875 -96 M70.66796875 -96 C70.66796875 -43.29802396926266, 70.66796875 9.403952061474683, 70.66796875 96 M70.66796875 -96 C70.66796875 -42.62046102753156, 70.66796875 10.759077944936877, 70.66796875 96 M70.66796875 96 C19.539840256466555 96, -31.58828823706689 96, -70.66796875 96 M70.66796875 96 C27.139343732285546 96, -16.389281285428908 96, -70.66796875 96 M-70.66796875 96 C-70.66796875 40.54475853206213, -70.66796875 -14.910482935875734, -70.66796875 -96 M-70.66796875 96 C-70.66796875 56.98920473654258, -70.66796875 17.978409473085165, -70.66796875 -96" stroke="#1F5E99" stroke-width="1.3" fill="none" stroke-dasharray="0 0" style=""/></g><g class="annotation-group text" transform="translate(0, -72)"/><g class="label-group text" transform="translate(-17.6640625, -72)"><g class="label" style="font-weight: bolder" transform="translate(0,-12)"><foreignObject width="35.328125" height="24"><div xmlns="http://www.w3.org/1999/xhtml" style="display: table-cell; white-space: nowrap; line-height: 1.5; max-width: 82px; text-align: center;"><span class="nodeLabel markdown-node-label" style=""><p>Salle</p></span></div></foreignObject></g></g><g class="members-group text" transform="translate(-58.66796875, -24)"><g class="label" style="" transform="translate(0,-12)"><foreignObject width="92.515625" height="24"><div xmlns="http://www.w3.org/1999/xhtml" style="display: table-cell; white-space: nowrap; line-height: 1.5; max-width: 144px; text-align: center;"><span class="nodeLabel markdown-node-label" style=""><p>+id_salle : int</p></span></div></foreignObject></g><g class="label" style="" transform="translate(0,12)"><foreignObject width="97.859375" height="24"><div xmlns="http://www.w3.org/1999/xhtml" style="display: table-cell; white-space: nowrap; line-height: 1.5; max-width: 144px; text-align: center;"><span class="nodeLabel markdown-node-label" style=""><p>+code : string</p></span></div></foreignObject></g><g class="label" style="" transform="translate(0,36)"><foreignObject width="94.25" height="24"><div xmlns="http://www.w3.org/1999/xhtml" style="display: table-cell; white-space: nowrap; line-height: 1.5; max-width: 141px; text-align: center;"><span class="nodeLabel markdown-node-label" style=""><p>+type : string</p></span></div></foreignObject></g><g class="label" style="" transform="translate(0,60)"><foreignObject width="99.671875" height="24"><div xmlns="http://www.w3.org/1999/xhtml" style="display: table-cell; white-space: nowrap; line-height: 1.5; max-width: 147px; text-align: center;"><span class="nodeLabel markdown-node-label" style=""><p>+capacite : int</p></span></div></foreignObject></g></g><g class="methods-group text" transform="translate(-58.66796875, 96)"/><g class="divider" style=""><path d="M-70.66796875 -48 C-28.0538350304874 -48, 14.560298689025203 -48, 70.66796875 -48 M-70.66796875 -48 C-39.99303233193986 -48, -9.31809591387971 -48, 70.66796875 -48" stroke="#1F5E99" stroke-width="1.3" fill="none" stroke-dasharray="0 0" style=""/></g><g class="divider" style=""><path d="M-70.66796875 72 C-27.55785357482 72, 15.552261600359998 72, 70.66796875 72 M-70.66796875 72 C-24.631653443746266 72, 21.404661862507467 72, 70.66796875 72" stroke="#1F5E99" stroke-width="1.3" fill="none" stroke-dasharray="0 0" style=""/></g></g><g class="node default" id="classId-Cours-1" transform="translate(142.7109375, 80)"><g class="basic label-container"><path d="M-88.70703125 -72 L88.70703125 -72 L88.70703125 72 L-88.70703125 72" stroke="none" stroke-width="0" fill="#E8F1FB" style=""/><path d="M-88.70703125 -72 C-49.868232533423495 -72, -11.02943381684699 -72, 88.70703125 -72 M-88.70703125 -72 C-24.773392670225405 -72, 39.16024590954919 -72, 88.70703125 -72 M88.70703125 -72 C88.70703125 -21.57468678666197, 88.70703125 28.850626426676058, 88.70703125 72 M88.70703125 -72 C88.70703125 -21.50027678343404, 88.70703125 28.999446433131922, 88.70703125 72 M88.70703125 72 C45.951580078309846 72, 3.196128906619691 72, -88.70703125 72 M88.70703125 72 C27.931187070133355 72, -32.84465710973329 72, -88.70703125 72 M-88.70703125 72 C-88.70703125 26.949778236455444, -88.70703125 -18.100443527089112, -88.70703125 -72 M-88.70703125 72 C-88.70703125 26.04720877997415, -88.70703125 -19.905582440051703, -88.70703125 -72" stroke="#1F5E99" stroke-width="1.3" fill="none" stroke-dasharray="0 0" style=""/></g><g class="annotation-group text" transform="translate(0, -48)"/><g class="label-group text" transform="translate(-21.4765625, -48)"><g class="label" style="font-weight: bolder" transform="translate(0,-12)"><foreignObject width="42.953125" height="24"><div xmlns="http://www.w3.org/1999/xhtml" style="display: table-cell; white-space: nowrap; line-height: 1.5; max-width: 88px; text-align: center;"><span class="nodeLabel markdown-node-label" style=""><p>Cours</p></span></div></foreignObject></g></g><g class="members-group text" transform="translate(-76.70703125, 0)"><g class="label" style="" transform="translate(0,-12)"><foreignObject width="99.640625" height="24"><div xmlns="http://www.w3.org/1999/xhtml" style="display: table-cell; white-space: nowrap; line-height: 1.5; max-width: 149px; text-align: center;"><span class="nodeLabel markdown-node-label" style=""><p>+id_cours : int</p></span></div></foreignObject></g><g class="label" style="" transform="translate(0,12)"><foreignObject width="131.9375" height="24"><div xmlns="http://www.w3.org/1999/xhtml" style="display: table-cell; white-space: nowrap; line-height: 1.5; max-width: 178px; text-align: center;"><span class="nodeLabel markdown-node-label" style=""><p>+type_salle : string</p></span></div></foreignObject></g></g><g class="methods-group text" transform="translate(-76.70703125, 72)"/><g class="divider" style=""><path d="M-88.70703125 -24 C-19.704286147308864 -24, 49.29845895538227 -24, 88.70703125 -24 M-88.70703125 -24 C-52.920875642981535 -24, -17.13472003596307 -24, 88.70703125 -24" stroke="#1F5E99" stroke-width="1.3" fill="none" stroke-dasharray="0 0" style=""/></g><g class="divider" style=""><path d="M-88.70703125 48 C-21.241812078576515 48, 46.22340709284697 48, 88.70703125 48 M-88.70703125 48 C-37.75807540622619 48, 13.19088043754762 48, 88.70703125 48" stroke="#1F5E99" stroke-width="1.3" fill="none" stroke-dasharray="0 0" style=""/></g></g><g class="node default" id="classId-AffectationCours-2" transform="translate(142.7109375, 600)"><g class="basic label-container"><path d="M-134.7109375 -108 L134.7109375 -108 L134.7109375 108 L-134.7109375 108" stroke="none" stroke-width="0" fill="#E8F1FB" style=""/><path d="M-134.7109375 -108 C-59.47044329430696 -108, 15.770050911386079 -108, 134.7109375 -108 M-134.7109375 -108 C-33.82818297370737 -108, 67.05457155258526 -108, 134.7109375 -108 M134.7109375 -108 C134.7109375 -58.960127962000435, 134.7109375 -9.92025592400087, 134.7109375 108 M134.7109375 -108 C134.7109375 -60.94860131910163, 134.7109375 -13.897202638203254, 134.7109375 108 M134.7109375 108 C71.84257547245682 108, 8.974213444913644 108, -134.7109375 108 M134.7109375 108 C60.33878651329208 108, -14.033364473415844 108, -134.7109375 108 M-134.7109375 108 C-134.7109375 54.5192545959112, -134.7109375 1.0385091918223992, -134.7109375 -108 M-134.7109375 108 C-134.7109375 33.480297976532654, -134.7109375 -41.03940404693469, -134.7109375 -108" stroke="#1F5E99" stroke-width="1.3" fill="none" stroke-dasharray="0 0" style=""/></g><g class="annotation-group text" transform="translate(0, -84)"/><g class="label-group text" transform="translate(-63.9375, -84)"><g class="label" style="font-weight: bolder" transform="translate(0,-12)"><foreignObject width="127.875" height="24"><div xmlns="http://www.w3.org/1999/xhtml" style="display: table-cell; white-space: nowrap; line-height: 1.5; max-width: 162px; text-align: center;"><span class="nodeLabel markdown-node-label" style=""><p>AffectationCours</p></span></div></foreignObject></g></g><g class="members-group text" transform="translate(-122.7109375, -36)"><g class="label" style="" transform="translate(0,-12)"><foreignObject width="181.484375" height="24"><div xmlns="http://www.w3.org/1999/xhtml" style="display: table-cell; white-space: nowrap; line-height: 1.5; max-width: 226px; text-align: center;"><span class="nodeLabel markdown-node-label" style=""><p>+id_affectation_cours : int</p></span></div></foreignObject></g><g class="label" style="" transform="translate(0,12)"><foreignObject width="92.515625" height="24"><div xmlns="http://www.w3.org/1999/xhtml" style="display: table-cell; white-space: nowrap; line-height: 1.5; max-width: 144px; text-align: center;"><span class="nodeLabel markdown-node-label" style=""><p>+id_salle : int</p></span></div></foreignObject></g><g class="label" style="" transform="translate(0,36)"><foreignObject width="99.640625" height="24"><div xmlns="http://www.w3.org/1999/xhtml" style="display: table-cell; white-space: nowrap; line-height: 1.5; max-width: 149px; text-align: center;"><span class="nodeLabel markdown-node-label" style=""><p>+id_cours : int</p></span></div></foreignObject></g><g class="label" style="" transform="translate(0,60)"><foreignObject width="135.75" height="24"><div xmlns="http://www.w3.org/1999/xhtml" style="display: table-cell; white-space: nowrap; line-height: 1.5; max-width: 181px; text-align: center;"><span class="nodeLabel markdown-node-label" style=""><p>+id_professeur : int</p></span></div></foreignObject></g><g class="label" style="" transform="translate(0,84)"><foreignObject width="164.046875" height="24"><div xmlns="http://www.w3.org/1999/xhtml" style="display: table-cell; white-space: nowrap; line-height: 1.5; max-width: 209px; text-align: center;"><span class="nodeLabel markdown-node-label" style=""><p>+id_plage_horaires : int</p></span></div></foreignObject></g></g><g class="methods-group text" transform="translate(-122.7109375, 108)"/><g class="divider" style=""><path d="M-134.7109375 -60 C-59.14233995408114 -60, 16.426257591837725 -60, 134.7109375 -60 M-134.7109375 -60 C-74.5868171186811 -60, -14.46269673736218 -60, 134.7109375 -60" stroke="#1F5E99" stroke-width="1.3" fill="none" stroke-dasharray="0 0" style=""/></g><g class="divider" style=""><path d="M-134.7109375 84 C-59.085933494723434 84, 16.53907051055313 84, 134.7109375 84 M-134.7109375 84 C-52.06650932496265 84, 30.577918850074695 84, 134.7109375 84" stroke="#1F5E99" stroke-width="1.3" fill="none" stroke-dasharray="0 0" style=""/></g></g></g></g></g></svg>